<svg width="282" height="62" viewBox="0 0 282 62" fill="none" xmlns="http://www.w3.org/2000/svg">
<path d="M104.64 44.28C102.587 44.28 100.747 43.9467 99.12 43.28C97.4933 42.6133 96.1867 41.6267 95.2 40.32C94.24 39.0133 93.7333 37.44 93.68 35.6H100.96C101.067 36.64 101.427 37.44 102.04 38C102.653 38.5333 103.453 38.8 104.44 38.8C105.453 38.8 106.253 38.5733 106.84 38.12C107.427 37.64 107.72 36.9867 107.72 36.16C107.72 35.4667 107.48 34.8933 107 34.44C106.547 33.9867 105.973 33.6133 105.28 33.32C104.613 33.0267 103.653 32.6933 102.4 32.32C100.587 31.76 99.1067 31.2 97.96 30.64C96.8133 30.08 95.8267 29.2533 95 28.16C94.1733 27.0667 93.76 25.64 93.76 23.88C93.76 21.2667 94.7067 19.2267 96.6 17.76C98.4933 16.2667 100.96 15.52 104 15.52C107.093 15.52 109.587 16.2667 111.48 17.76C113.373 19.2267 114.387 21.28 114.52 23.92H107.12C107.067 23.0133 106.733 22.3067 106.12 21.8C105.507 21.2667 104.72 21 103.76 21C102.933 21 102.267 21.2267 101.76 21.68C101.253 22.1067 101 22.7333 101 23.56C101 24.4667 101.427 25.1733 102.28 25.68C103.133 26.1867 104.467 26.7333 106.28 27.32C108.093 27.9333 109.56 28.52 110.68 29.08C111.827 29.64 112.813 30.4533 113.64 31.52C114.467 32.5867 114.88 33.96 114.88 35.64C114.88 37.24 114.467 38.6933 113.64 40C112.84 41.3067 111.667 42.3467 110.12 43.12C108.573 43.8933 106.747 44.28 104.64 44.28ZM125.929 24.84C126.596 23.8 127.516 22.96 128.689 22.32C129.863 21.68 131.236 21.36 132.809 21.36C134.649 21.36 136.316 21.8267 137.809 22.76C139.303 23.6933 140.476 25.0267 141.329 26.76C142.209 28.4933 142.649 30.5067 142.649 32.8C142.649 35.0933 142.209 37.12 141.329 38.88C140.476 40.6133 139.303 41.96 137.809 42.92C136.316 43.8533 134.649 44.32 132.809 44.32C131.263 44.32 129.889 44 128.689 43.36C127.516 42.72 126.596 41.8933 125.929 40.88V54.64H119.089V21.68H125.929V24.84ZM135.689 32.8C135.689 31.0933 135.209 29.76 134.249 28.8C133.316 27.8133 132.156 27.32 130.769 27.32C129.409 27.32 128.249 27.8133 127.289 28.8C126.356 29.7867 125.889 31.1333 125.889 32.84C125.889 34.5467 126.356 35.8933 127.289 36.88C128.249 37.8667 129.409 38.36 130.769 38.36C132.129 38.36 133.289 37.8667 134.249 36.88C135.209 35.8667 135.689 34.5067 135.689 32.8ZM171.958 45.64V52.2H147.158V45.64H171.958ZM194.929 39.04H184.449L182.769 44H175.609L185.769 15.92H193.689L203.849 44H196.609L194.929 39.04ZM193.169 33.76L189.689 23.48L186.249 33.76H193.169ZM205.781 29.92C205.781 27.1467 206.381 24.68 207.581 22.52C208.781 20.3333 210.448 18.64 212.581 17.44C214.741 16.2133 217.181 15.6 219.901 15.6C223.234 15.6 226.088 16.48 228.461 18.24C230.834 20 232.421 22.4 233.221 25.44H225.701C225.141 24.2667 224.341 23.3733 223.301 22.76C222.288 22.1467 221.128 21.84 219.821 21.84C217.714 21.84 216.008 22.5733 214.701 24.04C213.394 25.5067 212.741 27.4667 212.741 29.92C212.741 32.3733 213.394 34.3333 214.701 35.8C216.008 37.2667 217.714 38 219.821 38C221.128 38 222.288 37.6933 223.301 37.08C224.341 36.4667 225.141 35.5733 225.701 34.4H233.221C232.421 37.44 230.834 39.84 228.461 41.6C226.088 43.3333 223.234 44.2 219.901 44.2C217.181 44.2 214.741 43.6 212.581 42.4C210.448 41.1733 208.781 39.48 207.581 37.32C206.381 35.16 205.781 32.6933 205.781 29.92ZM244.25 21.4V27.08H253.41V32.36H244.25V38.52H254.61V44H237.41V15.92H254.61V21.4H244.25ZM269.21 44.28C267.157 44.28 265.317 43.9467 263.69 43.28C262.064 42.6133 260.757 41.6267 259.77 40.32C258.81 39.0133 258.304 37.44 258.25 35.6H265.53C265.637 36.64 265.997 37.44 266.61 38C267.224 38.5333 268.024 38.8 269.01 38.8C270.024 38.8 270.824 38.5733 271.41 38.12C271.997 37.64 272.29 36.9867 272.29 36.16C272.29 35.4667 272.05 34.8933 271.57 34.44C271.117 33.9867 270.544 33.6133 269.85 33.32C269.184 33.0267 268.224 32.6933 266.97 32.32C265.157 31.76 263.677 31.2 262.53 30.64C261.384 30.08 260.397 29.2533 259.57 28.16C258.744 27.0667 258.33 25.64 258.33 23.88C258.33 21.2667 259.277 19.2267 261.17 17.76C263.064 16.2667 265.53 15.52 268.57 15.52C271.664 15.52 274.157 16.2667 276.05 17.76C277.944 19.2267 278.957 21.28 279.09 23.92H271.69C271.637 23.0133 271.304 22.3067 270.69 21.8C270.077 21.2667 269.29 21 268.33 21C267.504 21 266.837 21.2267 266.33 21.68C265.824 22.1067 265.57 22.7333 265.57 23.56C265.57 24.4667 265.997 25.1733 266.85 25.68C267.704 26.1867 269.037 26.7333 270.85 27.32C272.664 27.9333 274.13 28.52 275.25 29.08C276.397 29.64 277.384 30.4533 278.21 31.52C279.037 32.5867 279.45 33.96 279.45 35.64C279.45 37.24 279.037 38.6933 278.21 40C277.41 41.3067 276.237 42.3467 274.69 43.12C273.144 43.8933 271.317 44.28 269.21 44.28Z" fill="#FEDD00"/>
<rect y="5" width="57" height="57" rx="15" fill="#FEDD00"/>
<rect x="10" y="15" width="37" height="37" rx="18.5" fill="black"/>
</svg>
