<svg width="14" height="14" viewBox="0 0 14 14" fill="none" xmlns="http://www.w3.org/2000/svg">
<g clip-path="url(#clip0_6824_2489)">
<path fill-rule="evenodd" clip-rule="evenodd" d="M8.40039 0.437494C7.61289 -0.175006 6.47539 -0.175006 5.60039 0.437494L4.81289 1.04999C4.63789 1.13749 4.55039 1.22499 4.37539 1.22499L3.32539 1.39999C2.36289 1.57499 1.57539 2.36249 1.40039 3.32499L1.22539 4.37499C1.22539 4.54999 1.13789 4.72499 1.05039 4.81249L0.437891 5.59999C-0.174609 6.38749 -0.174609 7.52499 0.437891 8.39999L1.05039 9.18749C1.13789 9.36249 1.22539 9.44999 1.22539 9.62499L1.40039 10.5875C1.57539 11.6375 2.36289 12.425 3.32539 12.5125L4.37539 12.775C4.55039 12.775 4.72539 12.8625 4.81289 12.95L5.60039 13.5625C6.38789 14.175 7.52539 14.175 8.40039 13.5625L9.18789 12.95C9.36289 12.8625 9.45039 12.775 9.62539 12.775L10.5879 12.6C11.6379 12.425 12.4254 11.6375 12.5129 10.675L12.6879 9.71249C12.6879 9.53749 12.7754 9.36249 12.8629 9.27499L13.4754 8.48749C14.0879 7.69999 14.0879 6.56249 13.4754 5.68749L12.8629 4.89999C12.7754 4.72499 12.6879 4.63749 12.6879 4.46249L12.5129 3.49999C12.3379 2.44999 11.5504 1.66249 10.5879 1.57499L9.62539 1.22499C9.45039 1.22499 9.27539 1.13749 9.18789 1.04999L8.40039 0.437494Z" fill="#147FCD"/>
<path fill-rule="evenodd" clip-rule="evenodd" d="M9.88789 5.94999C10.1504 5.68749 10.1504 5.24999 9.88789 4.98749C9.62539 4.72499 9.18789 4.72499 8.92539 4.98749L6.12539 7.78749L5.07539 6.73749C4.81289 6.47499 4.37539 6.47499 4.11289 6.73749C3.85039 6.99999 3.85039 7.43749 4.11289 7.69999L5.68789 9.18749C5.95039 9.44999 6.38789 9.44999 6.65039 9.18749L9.88789 5.94999Z" fill="white"/>
</g>
<defs>
<clipPath id="clip0_6824_2489">
<rect width="14" height="14" fill="white"/>
</clipPath>
</defs>
</svg>
